<?xml version="1.0" standalone="no"?>
<!DOCTYPE svg PUBLIC "-//W3C//DTD SVG 20010904//EN"
 "http://www.w3.org/TR/2001/REC-SVG-20010904/DTD/svg10.dtd">
<svg version="1.0" xmlns="http://www.w3.org/2000/svg"
 width="305.000000pt" height="305.000000pt" viewBox="0 0 305.000000 305.000000"
 preserveAspectRatio="xMidYMid meet">
<metadata>
Created by potrace 1.11, written by Peter Selinger 2001-2013
</metadata>
<g transform="translate(0.000000,305.000000) scale(0.100000,-0.100000)"
fill="#000000" stroke="none">
<path d="M1590 2900 l1075 -5 46 -27 c53 -31 92 -73 117 -127 16 -33 17 -122
17 -1196 l0 -1160 -30 -54 c-30 -54 -61 -83 -125 -117 -34 -18 -80 -19 -1145
-19 -1027 0 -1113 1 -1146 17 -54 25 -96 64 -127 117 l-27 46 -5 1125 -5 1125
0 -1140 0 -1140 26 -55 c37 -80 72 -115 147 -152 l67 -33 1110 0 1110 0 55 26
c80 37 115 72 152 147 l33 67 0 1160 0 1160 -33 67 c-37 75 -72 110 -152 147
l-55 26 -1090 0 -1090 0 1075 -5z"/>
<path d="M971 1993 c-88 -89 -203 -269 -334 -524 -80 -157 -113 -250 -97 -278
11 -22 59 -51 83 -51 10 0 17 16 22 46 17 116 113 341 216 506 55 88 139 201
145 195 3 -2 -9 -60 -26 -127 -38 -155 -59 -312 -62 -460 l-3 -115 45 -22 c24
-13 58 -23 76 -23 30 0 31 1 37 54 12 123 122 391 225 546 49 76 128 167 137
159 2 -3 -7 -48 -21 -102 -40 -158 -65 -323 -71 -474 l-6 -143 39 -16 c21 -9
56 -19 77 -22 l37 -5 0 114 c0 224 53 528 117 671 21 47 23 61 13 73 -13 16
-111 55 -139 55 -46 0 -215 -228 -345 -465 -36 -66 -66 -111 -66 -100 0 33 76
322 108 412 27 78 28 83 12 98 -22 20 -113 55 -141 55 -12 0 -45 -24 -78 -57z"/>
<path d="M1923 2029 c-77 -24 -139 -70 -177 -133 -35 -56 -39 -105 -11 -136
42 -46 52 -44 79 16 14 30 35 69 47 85 21 30 94 89 110 89 12 0 -158 -472
-227 -627 l-23 -53 32 -42 c89 -116 287 -131 456 -36 82 47 166 139 212 233
137 278 56 527 -199 605 -85 27 -214 26 -299 -1z m324 -64 c92 -38 132 -109
133 -231 0 -147 -58 -281 -164 -382 -92 -87 -225 -136 -322 -118 -34 7 -35 9
-29 39 14 66 111 298 195 463 l86 171 -31 20 c-17 11 -40 23 -53 27 -12 4 -22
11 -22 16 0 24 146 20 207 -5z"/>
</g>
</svg>
